<svg width="189" height="176" viewBox="0 0 189 176" fill="none" xmlns="http://www.w3.org/2000/svg">
<rect x="6" width="176" height="176" rx="40" fill="#AACFED"/>
<path d="M42.1668 84V45.5H35.5168L38.3168 35H52.6668V84H42.1668Z" fill="#2B87D1"/>
<path d="M25.2634 143L40.1114 122.584L25.4374 102.4H36.1674L45.5054 115.218L54.8434 102.4H65.5734L50.8994 122.584L65.7474 143H54.9594L45.5054 130.008L36.0514 143H25.2634Z" fill="#2B87D1"/>
<path d="M76.7922 84V74.62C78.0989 73.8033 79.7322 72.6717 81.6922 71.225C83.6522 69.755 85.7055 68.11 87.8522 66.29C90.0222 64.47 92.0405 62.6267 93.9072 60.76C95.7972 58.87 97.3372 57.085 98.5272 55.405C99.7172 53.7017 100.312 52.2667 100.312 51.1C100.312 49.91 100.021 48.825 99.4372 47.845C98.8539 46.8417 98.0722 46.0483 97.0922 45.465C96.1355 44.8817 95.0622 44.59 93.8722 44.59C92.6822 44.59 91.5972 44.8817 90.6172 45.465C89.6372 46.0483 88.8439 46.8417 88.2372 47.845C87.6539 48.825 87.3622 49.91 87.3622 51.1H76.8622C76.8622 47.88 77.6439 44.9867 79.2072 42.42C80.7705 39.8533 82.8355 37.8233 85.4022 36.33C87.9922 34.8367 90.8155 34.09 93.8722 34.09C96.9755 34.09 99.8105 34.8483 102.377 36.365C104.944 37.8817 106.986 39.935 108.502 42.525C110.042 45.0917 110.812 47.95 110.812 51.1C110.812 52.6633 110.602 54.1567 110.182 55.58C109.762 56.98 109.144 58.3683 108.327 59.745C107.534 61.0983 106.542 62.4867 105.352 63.91C104.162 65.3333 102.786 66.8383 101.222 68.425C99.6822 69.9883 97.9789 71.68 96.1122 73.5H110.812V84H76.7922Z" fill="#2B87D1"/>
<path d="M102.67 102.4H112.936L98.8416 124.73V143H90.1416V124.73L76.0476 102.4H86.3136L94.4916 115.276L102.67 102.4Z" fill="#2B87D1"/>
<path d="M143.484 84.91C140.544 84.91 137.849 84.1867 135.399 82.74C132.949 81.2933 130.989 79.345 129.519 76.895C128.049 74.445 127.314 71.7267 127.314 68.74H137.814C137.814 69.7667 138.071 70.7117 138.584 71.575C139.097 72.4383 139.786 73.1267 140.649 73.64C141.512 74.1533 142.457 74.41 143.484 74.41C144.511 74.41 145.456 74.1533 146.319 73.64C147.182 73.1267 147.871 72.4383 148.384 71.575C148.897 70.7117 149.154 69.7667 149.154 68.74C149.154 67.3167 148.757 66.1383 147.964 65.205C147.171 64.2483 146.051 63.5367 144.604 63.07C143.181 62.6033 141.501 62.37 139.564 62.37V54.39C142.131 54.39 144.149 53.9583 145.619 53.095C147.089 52.2083 147.824 50.89 147.824 49.14C147.824 48.3 147.614 47.53 147.194 46.83C146.797 46.13 146.249 45.57 145.549 45.15C144.872 44.73 144.114 44.52 143.274 44.52C142.411 44.52 141.559 44.73 140.719 45.15C139.879 45.57 139.179 46.13 138.619 46.83C138.082 47.53 137.814 48.3 137.814 49.14H127.314C127.314 47.0633 127.734 45.115 128.574 43.295C129.437 41.4517 130.604 39.8417 132.074 38.465C133.567 37.065 135.259 35.98 137.149 35.21C139.062 34.4167 141.057 34.02 143.134 34.02C145.864 34.02 148.384 34.6967 150.694 36.05C153.004 37.4033 154.847 39.2233 156.224 41.51C157.624 43.7967 158.324 46.34 158.324 49.14C158.324 50.7733 157.974 52.465 157.274 54.215C156.574 55.965 155.524 57.2133 154.124 57.96C155.337 58.4267 156.352 59.255 157.169 60.445C157.986 61.6117 158.604 62.9417 159.024 64.435C159.444 65.905 159.654 67.34 159.654 68.74C159.654 71.7033 158.919 74.41 157.449 76.86C156.002 79.31 154.054 81.27 151.604 82.74C149.154 84.1867 146.447 84.91 143.484 84.91Z" fill="#2B87D1"/>
<path d="M127.1 143V134.3L148.154 111.1H127.1V102.4H159.928V111.1L138.874 134.3H159.928V143H127.1Z" fill="#2B87D1"/>
</svg>
