<svg width="49" height="49" viewBox="0 0 49 49" fill="none" xmlns="http://www.w3.org/2000/svg">
<path d="M0 11.1364C0 4.98592 4.98592 0 11.1364 0H37.8636C44.0141 0 49 4.98592 49 11.1364V37.8636C49 44.0141 44.0141 49 37.8636 49H11.1364C4.98592 49 0 44.0141 0 37.8636V11.1364Z" fill="white"/>
<path d="M10.0692 23.3864V12.6676H8.21774L8.99729 9.74432H12.9925V23.3864H10.0692Z" fill="#2B87D1"/>
<path d="M5.36312 39.8125L9.49693 34.1285L5.41156 28.5091H8.39889L10.9987 32.0777L13.5985 28.5091H16.5858L12.5004 34.1285L16.6342 39.8125H13.6308L10.9987 36.1954L8.36659 39.8125H5.36312Z" fill="#2B87D1"/>
<path d="M19.7092 23.3864V20.7749C20.073 20.5475 20.5277 20.2325 21.0734 19.8297C21.6191 19.4204 22.1907 18.9624 22.7884 18.4557C23.3925 17.949 23.9545 17.4358 24.4742 16.9161C25.0004 16.3899 25.4291 15.893 25.7604 15.4253C26.0917 14.951 26.2574 14.5515 26.2574 14.2267C26.2574 13.8954 26.1762 13.5933 26.0138 13.3205C25.8514 13.0411 25.6337 12.8203 25.3609 12.6579C25.0945 12.4955 24.7957 12.4143 24.4644 12.4143C24.1331 12.4143 23.831 12.4955 23.5582 12.6579C23.2854 12.8203 23.0645 13.0411 22.8956 13.3205C22.7332 13.5933 22.652 13.8954 22.652 14.2267H19.7287C19.7287 13.3302 19.9463 12.5247 20.3815 11.8101C20.8168 11.0955 21.3917 10.5304 22.1063 10.1146C22.8274 9.69884 23.6134 9.49096 24.4644 9.49096C25.3284 9.49096 26.1177 9.70209 26.8323 10.1243C27.5469 10.5466 28.1153 11.1183 28.5375 11.8393C28.9663 12.5539 29.1807 13.3497 29.1807 14.2267C29.1807 14.662 29.1222 15.0777 29.0053 15.474C28.8883 15.8637 28.7162 16.2503 28.4888 16.6336C28.2679 17.0103 27.9919 17.3969 27.6606 17.7931C27.3292 18.1894 26.946 18.6084 26.5107 19.0501C26.082 19.4854 25.6078 19.9564 25.0881 20.4631H29.1807V23.3864H19.7092Z" fill="#2B87D1"/>
<path d="M26.9137 28.5091H29.7718L25.848 34.726V39.8125H23.4258V34.726L19.5019 28.5091H22.36L24.6369 32.0939L26.9137 28.5091Z" fill="#2B87D1"/>
<path d="M38.2768 23.6397C37.4582 23.6397 36.7079 23.4383 36.0258 23.0356C35.3437 22.6328 34.798 22.0904 34.3888 21.4083C33.9795 20.7262 33.7749 19.9694 33.7749 19.1378H36.6982C36.6982 19.4237 36.7696 19.6868 36.9126 19.9271C37.0555 20.1675 37.2471 20.3591 37.4875 20.502C37.7278 20.645 37.9909 20.7164 38.2768 20.7164C38.5626 20.7164 38.8257 20.645 39.066 20.502C39.3064 20.3591 39.498 20.1675 39.641 19.9271C39.7839 19.6868 39.8553 19.4237 39.8553 19.1378C39.8553 18.7416 39.7449 18.4135 39.524 18.1537C39.3032 17.8873 38.9913 17.6892 38.5886 17.5593C38.1923 17.4293 37.7246 17.3644 37.1854 17.3644V15.1427C37.9 15.1427 38.4619 15.0225 38.8712 14.7821C39.2804 14.5353 39.4851 14.1682 39.4851 13.681C39.4851 13.4472 39.4266 13.2328 39.3097 13.0379C39.1992 12.843 39.0466 12.6871 38.8517 12.5702C38.6633 12.4532 38.4522 12.3948 38.2183 12.3948C37.9779 12.3948 37.7408 12.4532 37.507 12.5702C37.2731 12.6871 37.0782 12.843 36.9223 13.0379C36.7729 13.2328 36.6982 13.4472 36.6982 13.681H33.7749C33.7749 13.1029 33.8918 12.5604 34.1257 12.0537C34.366 11.5405 34.6908 11.0923 35.1001 10.709C35.5159 10.3192 35.9868 10.0172 36.513 9.80278C37.0457 9.58191 37.6012 9.47148 38.1793 9.47148C38.9394 9.47148 39.641 9.65987 40.2841 10.0366C40.9272 10.4134 41.4404 10.9201 41.8237 11.5568C42.2135 12.1934 42.4083 12.9015 42.4083 13.681C42.4083 14.1358 42.3109 14.6067 42.116 15.0939C41.9211 15.5812 41.6288 15.9287 41.239 16.1366C41.5768 16.2665 41.8594 16.4971 42.0868 16.8284C42.3142 17.1532 42.4863 17.5235 42.6032 17.9393C42.7202 18.3486 42.7786 18.7481 42.7786 19.1378C42.7786 19.9629 42.574 20.7164 42.1647 21.3985C41.762 22.0806 41.2195 22.6263 40.5374 23.0356C39.8553 23.4383 39.1018 23.6397 38.2768 23.6397Z" fill="#2B87D1"/>
<path d="M33.7154 39.8125V37.3903L39.577 30.9312H33.7154V28.5091H42.855V30.9312L36.9934 37.3903H42.855V39.8125H33.7154Z" fill="#2B87D1"/>
</svg>
