<svg width="24" height="24" viewBox="0 0 24 24" fill="none" xmlns="http://www.w3.org/2000/svg">
<g clip-path="url(#clip0_403_4462)">
<path d="M12 0C5.383 0 0 5.383 0 12C0 18.617 5.383 24 12 24C18.617 24 24 18.617 24 12C24 5.383 18.617 0 12 0ZM12 22C6.486 22 2 17.514 2 12C2 6.486 6.486 2 12 2C17.514 2 22 6.486 22 12C22 17.514 17.514 22 12 22ZM13.5 6.5C13.5 7.328 12.828 8 12 8C11.172 8 10.5 7.328 10.5 6.5C10.5 5.672 11.172 5 12 5C12.828 5 13.5 5.672 13.5 6.5ZM13.5 17.5C13.5 18.328 12.828 19 12 19C11.172 19 10.5 18.328 10.5 17.5C10.5 16.672 11.172 16 12 16C12.828 16 13.5 16.672 13.5 17.5ZM13.5 12C13.5 12.828 12.828 13.5 12 13.5C11.172 13.5 10.5 12.828 10.5 12C10.5 11.172 11.172 10.5 12 10.5C12.828 10.5 13.5 11.172 13.5 12Z" fill="white"/>
</g>
<defs>
<clipPath id="clip0_403_4462">
<rect width="24" height="24" fill="white"/>
</clipPath>
</defs>
</svg>
