<svg width="18" height="18" viewBox="0 0 18 18" fill="none" xmlns="http://www.w3.org/2000/svg">
<path d="M5.81953 4.98797L7.90516 2.9016L7.92091 13.125C7.92091 13.7463 8.42456 14.2499 9.04584 14.2499C9.66712 14.2499 10.1708 13.7463 10.1708 13.125L10.155 2.91436L12.2287 4.988C12.6603 5.43488 13.3724 5.44725 13.8193 5.01563C14.2662 4.58401 14.2786 3.87186 13.8469 3.42498C13.8379 3.41559 13.8287 3.40638 13.8193 3.39735L11.4105 0.988478C10.0925 -0.329487 7.95571 -0.329487 6.63775 0.988442L6.63771 0.988478L4.22888 3.39731C3.79726 3.84419 3.80963 4.55634 4.25651 4.98797C4.69246 5.40901 5.38359 5.40901 5.81953 4.98797Z" fill="#2B87D1"/>
<path d="M16.874 10.876C16.2527 10.876 15.7491 11.3796 15.7491 12.0009V15.4439C15.7486 15.6132 15.6116 15.7503 15.4423 15.7507H2.55659C2.38735 15.7502 2.25025 15.6132 2.24987 15.4439V12.0009C2.24987 11.3796 1.74621 10.876 1.12493 10.876C0.503654 10.876 0 11.3796 0 12.0009V15.4439C0.00165225 16.8552 1.14532 17.9989 2.55659 18.0005H15.4423C16.8536 17.9989 17.9972 16.8552 17.9989 15.4439V12.0009C17.9989 11.3796 17.4953 10.876 16.874 10.876Z" fill="#2B87D1"/>
</svg>
